<svg width="62" height="62" viewBox="0 0 62 62" fill="none" xmlns="http://www.w3.org/2000/svg">
<path d="M30.9998 61.8334C26.6318 61.8334 22.5721 61.0497 18.8207 59.4823C15.0693 57.915 11.8061 55.7438 9.03109 52.9688C6.25609 50.1938 4.08491 46.9306 2.51755 43.1792C0.950184 39.4278 0.166504 35.3681 0.166504 31C0.166504 26.6834 0.950184 22.6493 2.51755 18.8979C4.08491 15.1465 6.25609 11.8834 9.03109 9.10835C11.8061 6.33335 15.0693 4.14933 18.8207 2.55627C22.5721 0.963215 26.6318 0.166687 30.9998 0.166687C34.854 0.166687 38.4512 0.783354 41.7915 2.01669C45.1318 3.25002 48.138 4.94585 50.8102 7.10419L47.4957 10.4188C45.2346 8.62016 42.7165 7.23266 39.9415 6.25627C37.1665 5.27988 34.1859 4.79169 30.9998 4.79169C23.5484 4.79169 17.3175 7.2969 12.3071 12.3073C7.29671 17.3177 4.7915 23.5486 4.7915 31C4.7915 38.4514 7.29671 44.6823 12.3071 49.6927C17.3175 54.7031 23.5484 57.2084 30.9998 57.2084C38.4512 57.2084 44.6821 54.7031 49.6925 49.6927C54.703 44.6823 57.2082 38.4514 57.2082 31C57.2082 29.4584 57.0925 27.9552 56.8613 26.4906C56.63 25.0261 56.2832 23.6 55.8207 22.2125L59.3665 18.6667C60.1887 20.5681 60.8054 22.5465 61.2165 24.6021C61.6276 26.6577 61.8332 28.7903 61.8332 31C61.8332 35.3681 61.0366 39.4278 59.4436 43.1792C57.8505 46.9306 55.6665 50.1938 52.8915 52.9688C50.1165 55.7438 46.8533 57.915 43.1019 59.4823C39.3505 61.0497 35.3165 61.8334 30.9998 61.8334ZM26.4519 45.0292L13.7332 32.2334L17.2019 28.7646L26.4519 38.0146L58.3644 6.1021L61.9102 9.57085L26.4519 45.0292Z" fill="#00B43D"/>
</svg>
