<svg width="22" height="18" viewBox="0 0 22 18" fill="none" xmlns="http://www.w3.org/2000/svg">
<path d="M1.65 18C1.21 18 0.825 17.8312 0.495 17.4937C0.165 17.1562 0 16.7625 0 16.3125V1.6875C0 1.2375 0.165 0.84375 0.495 0.50625C0.825 0.16875 1.21 0 1.65 0H20.35C20.79 0 21.175 0.16875 21.505 0.50625C21.835 0.84375 22 1.2375 22 1.6875V16.3125C22 16.7625 21.835 17.1562 21.505 17.4937C21.175 17.8312 20.79 18 20.35 18H1.65ZM11 9.50625L1.65 3.23437V16.3125H20.35V3.23437L11 9.50625ZM11 7.81875L20.24 1.6875H1.7875L11 7.81875ZM1.65 3.23437V1.6875V16.3125V3.23437Z" fill="black"/>
</svg>
