<svg width="25" height="13" viewBox="0 0 25 13" fill="none" xmlns="http://www.w3.org/2000/svg">
<path d="M6.52174 8.34167C6.01449 8.34167 5.57971 8.16111 5.21739 7.8C4.85507 7.43889 4.67391 7.00556 4.67391 6.5C4.67391 5.99444 4.85507 5.56111 5.21739 5.2C5.57971 4.83889 6.01449 4.65833 6.52174 4.65833C7.02899 4.65833 7.46377 4.83889 7.82609 5.2C8.18841 5.56111 8.36956 5.99444 8.36956 6.5C8.36956 7.00556 8.18841 7.43889 7.82609 7.8C7.46377 8.16111 7.02899 8.34167 6.52174 8.34167ZM6.52174 13C4.71014 13 3.17029 12.3681 1.90217 11.1042C0.634058 9.84028 0 8.30556 0 6.5C0 4.69444 0.634058 3.15972 1.90217 1.89583C3.17029 0.631944 4.71014 0 6.52174 0C7.82609 0 8.96739 0.306944 9.94565 0.920833C10.9239 1.53472 11.6938 2.46458 12.2554 3.71042H21.9293L25 6.77083L20.462 10.9146L18.0707 9.18125L15.6793 10.9146L13.6413 9.28958H12.2554C11.8025 10.3729 11.0915 11.2622 10.1223 11.9573C9.15308 12.6524 7.9529 13 6.52174 13ZM6.52174 11.375C7.57246 11.375 8.54167 11.0274 9.42935 10.3323C10.317 9.63715 10.8877 8.74792 11.1413 7.66458H14.2391L15.7065 8.88333L18.0978 7.17708L20.3261 8.85625L22.6359 6.71667L21.25 5.33542H11.1413C10.9239 4.32431 10.3804 3.45313 9.51087 2.72188C8.6413 1.99063 7.64493 1.625 6.52174 1.625C5.16304 1.625 4.00815 2.09896 3.05707 3.04688C2.10598 3.99479 1.63043 5.14583 1.63043 6.5C1.63043 7.85417 2.10598 9.00521 3.05707 9.95313C4.00815 10.901 5.16304 11.375 6.52174 11.375Z" fill="black"/>
</svg>
