<svg width="195" height="65" viewBox="0 0 195 65" fill="none" xmlns="http://www.w3.org/2000/svg">
<path d="M81.3457 36.364C81.3457 31.936 74.9017 33.34 74.9017 30.82C74.9017 29.794 75.6397 29.308 76.6297 29.344C77.7097 29.362 78.3757 30.01 78.4297 30.838H81.2017C81.0397 28.57 79.2757 27.256 76.7017 27.256C74.1097 27.256 72.2737 28.624 72.2737 30.892C72.2557 35.446 78.7357 33.808 78.7357 36.526C78.7357 37.426 78.0337 38.056 76.8457 38.056C75.6757 38.056 75.0097 37.39 74.9377 36.382H72.2377C72.2737 38.758 74.2897 40.126 76.8997 40.126C79.7617 40.126 81.3457 38.344 81.3457 36.364ZM82.8645 29.47H86.2125V40H88.7325V29.47H92.0805V27.436H82.8645V29.47ZM106.177 33.682C106.177 29.92 103.333 27.256 99.7511 27.256C96.2051 27.256 93.3071 29.92 93.3071 33.682C93.3071 37.462 96.2051 40.126 99.7511 40.126C103.315 40.126 106.177 37.462 106.177 33.682ZM95.8991 33.682C95.8991 31.126 97.4651 29.524 99.7511 29.524C102.019 29.524 103.585 31.126 103.585 33.682C103.585 36.238 102.019 37.876 99.7511 37.876C97.4651 37.876 95.8991 36.238 95.8991 33.682ZM114.712 31.342C114.712 32.476 114.082 33.214 112.678 33.214H110.572V29.524H112.678C114.082 29.524 114.712 30.226 114.712 31.342ZM108.052 27.436V40H110.572V35.104H111.76L114.532 40H117.448L114.442 34.906C116.458 34.366 117.304 32.818 117.304 31.288C117.304 29.182 115.792 27.436 112.768 27.436H108.052ZM122.805 35.626V40H125.325V35.626L129.573 27.436H126.765L124.083 33.178L121.383 27.436H118.539L122.805 35.626ZM143.218 40H145.738V27.436H143.218V32.602H137.836V27.436H135.316V40H137.836V34.654H143.218V40ZM160.476 33.682C160.476 29.92 157.632 27.256 154.05 27.256C150.504 27.256 147.606 29.92 147.606 33.682C147.606 37.462 150.504 40.126 154.05 40.126C157.614 40.126 160.476 37.462 160.476 33.682ZM150.198 33.682C150.198 31.126 151.764 29.524 154.05 29.524C156.318 29.524 157.884 31.126 157.884 33.682C157.884 36.238 156.318 37.876 154.05 37.876C151.764 37.876 150.198 36.238 150.198 33.682ZM162.315 35.194C162.315 38.506 164.583 40.126 167.337 40.126C170.091 40.126 172.467 38.506 172.467 35.194V27.436H169.929V35.212C169.929 36.94 168.993 37.84 167.373 37.84C165.771 37.84 164.835 36.94 164.835 35.212V27.436H162.315V35.194ZM183.686 36.364C183.686 31.936 177.242 33.34 177.242 30.82C177.242 29.794 177.98 29.308 178.97 29.344C180.05 29.362 180.716 30.01 180.77 30.838H183.542C183.38 28.57 181.616 27.256 179.042 27.256C176.45 27.256 174.614 28.624 174.614 30.892C174.596 35.446 181.076 33.808 181.076 36.526C181.076 37.426 180.374 38.056 179.186 38.056C178.016 38.056 177.35 37.39 177.278 36.382H174.578C174.614 38.758 176.63 40.126 179.24 40.126C182.102 40.126 183.686 38.344 183.686 36.364ZM193.16 27.418H185.87V40H193.16V37.948H188.39V34.618H192.62V32.62H188.39V29.47H193.16V27.418Z" fill="white"/>
<rect x="31.8198" y="0.680176" width="45" height="45" rx="8" transform="rotate(45 31.8198 0.680176)" fill="url(#paint0_linear_34_4421)"/>
<circle cx="24.3198" cy="26" r="5" fill="white"/>
<circle cx="24.3198" cy="39" r="5" fill="white"/>
<circle cx="38.3198" cy="26" r="5" fill="white"/>
<circle cx="38.3198" cy="39" r="5" fill="white"/>
<defs>
<linearGradient id="paint0_linear_34_4421" x1="54.3198" y1="0.680176" x2="54.3198" y2="45.6802" gradientUnits="userSpaceOnUse">
<stop stop-color="#DB3529"/>
<stop offset="1" stop-color="#FF4B3E"/>
</linearGradient>
</defs>
</svg>
