<svg width="23" height="23" viewBox="0 0 23 23" fill="none" xmlns="http://www.w3.org/2000/svg">
<path d="M2.72907 22.55C2.08449 22.55 1.5435 22.3313 1.10611 21.8939C0.66871 21.4565 0.450012 20.9155 0.450012 20.271C0.450012 19.6264 0.66871 19.0854 1.10611 18.648C1.5435 18.2106 2.08449 17.9919 2.72907 17.9919C3.37366 17.9919 3.91465 18.2106 4.35204 18.648C4.78944 19.0854 5.00814 19.6264 5.00814 20.271C5.00814 20.9155 4.78944 21.4565 4.35204 21.8939C3.91465 22.3313 3.37366 22.55 2.72907 22.55V22.55ZM11.5 22.55C10.8554 22.55 10.3144 22.3313 9.87704 21.8939C9.43965 21.4565 9.22095 20.9155 9.22095 20.271C9.22095 19.6264 9.43965 19.0854 9.87704 18.648C10.3144 18.2106 10.8554 17.9919 11.5 17.9919C12.1446 17.9919 12.6856 18.2106 13.123 18.648C13.5604 19.0854 13.7791 19.6264 13.7791 20.271C13.7791 20.9155 13.5604 21.4565 13.123 21.8939C12.6856 22.3313 12.1446 22.55 11.5 22.55ZM20.271 22.55C19.6264 22.55 19.0854 22.3313 18.648 21.8939C18.2106 21.4565 17.9919 20.9155 17.9919 20.271C17.9919 19.6264 18.2106 19.0854 18.648 18.648C19.0854 18.2106 19.6264 17.9919 20.271 17.9919C20.9155 17.9919 21.4565 18.2106 21.8939 18.648C22.3313 19.0854 22.55 19.6264 22.55 20.271C22.55 20.9155 22.3313 21.4565 21.8939 21.8939C21.4565 22.3313 20.9155 22.55 20.271 22.55ZM2.72907 13.7791C2.08449 13.7791 1.5435 13.5604 1.10611 13.123C0.66871 12.6856 0.450012 12.1446 0.450012 11.5C0.450012 10.8554 0.66871 10.3144 1.10611 9.87704C1.5435 9.43965 2.08449 9.22095 2.72907 9.22095C3.37366 9.22095 3.91465 9.43965 4.35204 9.87704C4.78944 10.3144 5.00814 10.8554 5.00814 11.5C5.00814 12.1446 4.78944 12.6856 4.35204 13.123C3.91465 13.5604 3.37366 13.7791 2.72907 13.7791V13.7791ZM11.5 13.7791C10.8554 13.7791 10.3144 13.5604 9.87704 13.123C9.43965 12.6856 9.22095 12.1446 9.22095 11.5C9.22095 10.8554 9.43965 10.3144 9.87704 9.87704C10.3144 9.43965 10.8554 9.22095 11.5 9.22095C12.1446 9.22095 12.6856 9.43965 13.123 9.87704C13.5604 10.3144 13.7791 10.8554 13.7791 11.5C13.7791 12.1446 13.5604 12.6856 13.123 13.123C12.6856 13.5604 12.1446 13.7791 11.5 13.7791ZM20.271 13.7791C19.6264 13.7791 19.0854 13.5604 18.648 13.123C18.2106 12.6856 17.9919 12.1446 17.9919 11.5C17.9919 10.8554 18.2106 10.3144 18.648 9.87704C19.0854 9.43965 19.6264 9.22095 20.271 9.22095C20.9155 9.22095 21.4565 9.43965 21.8939 9.87704C22.3313 10.3144 22.55 10.8554 22.55 11.5C22.55 12.1446 22.3313 12.6856 21.8939 13.123C21.4565 13.5604 20.9155 13.7791 20.271 13.7791ZM2.72907 5.00814C2.08449 5.00814 1.5435 4.78944 1.10611 4.35204C0.66871 3.91465 0.450012 3.37366 0.450012 2.72907C0.450012 2.08449 0.66871 1.5435 1.10611 1.10611C1.5435 0.66871 2.08449 0.450012 2.72907 0.450012C3.37366 0.450012 3.91465 0.66871 4.35204 1.10611C4.78944 1.5435 5.00814 2.08449 5.00814 2.72907C5.00814 3.37366 4.78944 3.91465 4.35204 4.35204C3.91465 4.78944 3.37366 5.00814 2.72907 5.00814V5.00814ZM11.5 5.00814C10.8554 5.00814 10.3144 4.78944 9.87704 4.35204C9.43965 3.91465 9.22095 3.37366 9.22095 2.72907C9.22095 2.08449 9.43965 1.5435 9.87704 1.10611C10.3144 0.66871 10.8554 0.450012 11.5 0.450012C12.1446 0.450012 12.6856 0.66871 13.123 1.10611C13.5604 1.5435 13.7791 2.08449 13.7791 2.72907C13.7791 3.37366 13.5604 3.91465 13.123 4.35204C12.6856 4.78944 12.1446 5.00814 11.5 5.00814V5.00814ZM20.271 5.00814C19.6264 5.00814 19.0854 4.78944 18.648 4.35204C18.2106 3.91465 17.9919 3.37366 17.9919 2.72907C17.9919 2.08449 18.2106 1.5435 18.648 1.10611C19.0854 0.66871 19.6264 0.450012 20.271 0.450012C20.9155 0.450012 21.4565 0.66871 21.8939 1.10611C22.3313 1.5435 22.55 2.08449 22.55 2.72907C22.55 3.37366 22.3313 3.91465 21.8939 4.35204C21.4565 4.78944 20.9155 5.00814 20.271 5.00814V5.00814Z" fill="#1A3AAF"/>
</svg>
