<svg width="13" height="20" viewBox="0 0 13 20" fill="none" xmlns="http://www.w3.org/2000/svg">
<path d="M6.5 0L6.51083 11.7222C5.87167 11.3444 5.135 11.1111 4.34417 11.1111C1.93917 11.1111 0 13.1 0 15.5556C0 18.0111 1.93917 20 4.34417 20C6.74917 20 8.66667 18.0111 8.66667 15.5556V4.44444H13V0H6.5ZM4.34417 17.7778C3.1525 17.7778 2.1775 16.7778 2.1775 15.5556C2.1775 14.3333 3.1525 13.3333 4.34417 13.3333C5.53583 13.3333 6.51083 14.3333 6.51083 15.5556C6.51083 16.7778 5.53583 17.7778 4.34417 17.7778Z" fill="white"/>
</svg>
