<svg width="17" height="17" viewBox="0 0 17 17" fill="none" xmlns="http://www.w3.org/2000/svg">
<path d="M4.4625 5.17083C4.65139 5.17083 4.81667 5.1 4.95833 4.95833C5.1 4.81667 5.17083 4.65139 5.17083 4.4625C5.17083 4.27361 5.1 4.10833 4.95833 3.96667C4.81667 3.825 4.65139 3.75417 4.4625 3.75417C4.27361 3.75417 4.10833 3.825 3.96667 3.96667C3.825 4.10833 3.75417 4.27361 3.75417 4.4625C3.75417 4.65139 3.825 4.81667 3.96667 4.95833C4.10833 5.1 4.27361 5.17083 4.4625 5.17083ZM4.4625 9.20833C4.65139 9.20833 4.81667 9.1375 4.95833 8.99583C5.1 8.85417 5.17083 8.68889 5.17083 8.5C5.17083 8.31111 5.1 8.14583 4.95833 8.00417C4.81667 7.8625 4.65139 7.79167 4.4625 7.79167C4.27361 7.79167 4.10833 7.8625 3.96667 8.00417C3.825 8.14583 3.75417 8.31111 3.75417 8.5C3.75417 8.68889 3.825 8.85417 3.96667 8.99583C4.10833 9.1375 4.27361 9.20833 4.4625 9.20833ZM4.4625 13.2458C4.65139 13.2458 4.81667 13.175 4.95833 13.0333C5.1 12.8917 5.17083 12.7264 5.17083 12.5375C5.17083 12.3486 5.1 12.1833 4.95833 12.0417C4.81667 11.9 4.65139 11.8292 4.4625 11.8292C4.27361 11.8292 4.10833 11.9 3.96667 12.0417C3.825 12.1833 3.75417 12.3486 3.75417 12.5375C3.75417 12.7264 3.825 12.8917 3.96667 13.0333C4.10833 13.175 4.27361 13.2458 4.4625 13.2458ZM1.41667 17C1.03889 17 0.708333 16.8583 0.425 16.575C0.141667 16.2917 0 15.9611 0 15.5833V1.41667C0 1.03889 0.141667 0.708333 0.425 0.425C0.708333 0.141667 1.03889 0 1.41667 0H12.325L17 4.675V15.5833C17 15.9611 16.8583 16.2917 16.575 16.575C16.2917 16.8583 15.9611 17 15.5833 17H1.41667ZM1.41667 15.5833H15.5833V5.4643H11.5458V1.41667H1.41667V15.5833Z" fill="white"/>
</svg>
